<svg width="16" height="16" viewBox="0 0 16 16" fill="none" xmlns="http://www.w3.org/2000/svg">
<rect x="0.5" y="0.5" width="15" height="15" rx="7.5" fill="#F2F2F5"/>
<path d="M11.75 8C11.75 7.65625 11.4688 7.375 11.125 7.375C10.7812 7.375 10.5 7.65625 10.5 8C10.5 8.34375 10.7812 8.625 11.125 8.625C11.4687 8.625 11.75 8.34375 11.75 8ZM5.5 8C5.5 7.65625 5.21875 7.375 4.875 7.375C4.53125 7.375 4.25 7.65625 4.25 8C4.25 8.34375 4.53125 8.625 4.875 8.625C5.21875 8.625 5.5 8.34375 5.5 8ZM8.625 8C8.625 7.65625 8.34375 7.375 8 7.375C7.65625 7.375 7.375 7.65625 7.375 8C7.375 8.34375 7.65625 8.625 8 8.625C8.34375 8.625 8.625 8.34375 8.625 8Z" fill="#919899"/>
<rect x="0.5" y="0.5" width="15" height="15" rx="7.5" stroke="white"/>
</svg>
